<?xml version="1.0" standalone="no"?><!DOCTYPE svg PUBLIC "-//W3C//DTD SVG 1.1//EN" "http://www.w3.org/Graphics/SVG/1.1/DTD/svg11.dtd"><svg t="1671679881305" class="icon" viewBox="0 0 1024 1024" version="1.1" xmlns="http://www.w3.org/2000/svg" p-id="1141" xmlns:xlink="http://www.w3.org/1999/xlink" width="200" height="200"><path d="M494.933333 457.386667c-10.24 0-17.066667-6.826667-17.066666-13.653334 0-3.413333-3.413333-51.2 40.96-81.92 23.893333-17.066667 27.306667-47.786667 27.306666-88.746666 0-64.853333-102.4-64.853333-102.4 0 0 10.24-6.826667 17.066667-17.066666 17.066666S409.6 283.306667 409.6 273.066667c0-54.613333 44.373333-85.333333 85.333333-85.333334S580.266667 218.453333 580.266667 273.066667c0 37.546667 0 92.16-40.96 116.053333-27.306667 17.066667-27.306667 47.786667-27.306667 47.786667 0 10.24-6.826667 17.066667-17.066667 20.48zM1006.933333 1006.933333l-989.866666-3.413333c-10.24 0-17.066667-6.826667-17.066667-17.066667V955.733333c0-122.88 78.506667-245.76 180.906667-279.893333l109.226666-37.546667c6.826667-3.413333 13.653333 0 17.066667 3.413334 54.613333 58.026667 122.88 92.16 197.973333 92.16s143.36-34.133333 197.973334-92.16c3.413333-3.413333 10.24-6.826667 17.066666-3.413334l109.226667 37.546667c105.813333 37.546667 194.56 163.84 194.56 283.306667v30.72c0 3.413333-3.413333 10.24-3.413333 13.653333-3.413333 0-10.24 3.413333-13.653334 3.413333zM34.133333 969.386667l955.733334 3.413333v-13.653333c0-105.813333-75.093333-218.453333-170.666667-252.586667l-98.986667-34.133333c-61.44 61.44-136.533333 95.573333-215.04 95.573333s-153.6-34.133333-215.04-95.573333l-98.986666 34.133333C92.16 740.693333 34.133333 860.16 34.133333 955.733333v13.653334z" fill="#87CEFA" p-id="1142"></path><path d="M508.586667 699.733333c-105.813333 0-204.8-92.16-242.346667-218.453333-34.133333 0-61.44-44.373333-61.44-102.4 0-47.786667 17.066667-85.333333 44.373333-98.986667V273.066667c0-136.533333 122.88-256 266.24-256S778.24 136.533333 778.24 273.066667v6.826666c23.893333 10.24 44.373333 51.2 44.373333 98.986667 0 58.026667-27.306667 102.4-61.44 102.4-40.96 126.293333-146.773333 218.453333-252.586666 218.453333zM276.48 443.733333h6.826667c3.413333 3.413333 10.24 6.826667 10.24 10.24 30.72 119.466667 119.466667 208.213333 215.04 208.213334s194.56-92.16 221.866666-208.213334c0-6.826667 3.413333-10.24 10.24-10.24 3.413333-3.413333 10.24 0 17.066667 0h3.413333c10.24 0 27.306667-27.306667 27.306667-68.266666s-13.653333-64.853333-23.893333-68.266667h-3.413334c-3.413333 0-10.24-3.413333-13.653333-6.826667-3.413333-3.413333-6.826667-10.24-3.413333-13.653333v-6.826667-13.653333c0-119.466667-109.226667-221.866667-232.106667-221.866667S283.306667 153.6 283.306667 273.066667V293.546667c0 3.413333 0 10.24-3.413334 13.653333s-10.24 3.413333-13.653333 3.413333c-10.24 3.413333-27.306667 27.306667-27.306667 68.266667s17.066667 68.266667 27.306667 68.266667h3.413333c0-3.413333 3.413333-3.413333 6.826667-3.413334z" fill="#87CEFA" p-id="1143"></path><path d="M494.933333 512m-17.066666 0a17.066667 17.066667 0 1 0 34.133333 0 17.066667 17.066667 0 1 0-34.133333 0Z" fill="#87CEFA" p-id="1144"></path></svg>