<?xml version="1.0" standalone="no"?><!DOCTYPE svg PUBLIC "-//W3C//DTD SVG 1.1//EN" "http://www.w3.org/Graphics/SVG/1.1/DTD/svg11.dtd"><svg t="1671624514518" class="icon" viewBox="0 0 1024 1024" version="1.1" xmlns="http://www.w3.org/2000/svg" p-id="7280" xmlns:xlink="http://www.w3.org/1999/xlink" width="200" height="200"><path d="M512.002433 946.873725C272.70299 946.873725 78.026345 752.18735 78.026345 512.902503 78.026345 273.61279 272.70299 78.926416 512.002433 78.926416c239.294578 0 433.971222 194.686375 433.971222 433.976087C945.973655 752.18735 751.29701 946.873725 512.002433 946.873725L512.002433 946.873725zM512.002433 108.688327c-222.87438 0-404.20931 181.300873-404.20931 404.214175 0 222.909653 181.33493 404.20931 404.20931 404.20931 222.869515 0 404.20931-181.300873 404.20931-404.20931C916.211743 289.9892 734.871948 108.688327 512.002433 108.688327L512.002433 108.688327zM512.002433 108.688327" fill="#87CEFA" p-id="7281"></path><path d="M512.002433 946.873725c-105.572139 0-207.357902-38.428127-286.617587-108.241941l-10.951664-9.619803 9.41303-11.128029c27.818247-32.997299 77.021673-60.521199 138.525651-77.430353 22.037121-8.775683 32.64092-14.595731 40.580998-22.549188 8.48012-8.461875 13.165349-16.446956 14.790341-25.170338 1.101978-6.020739 0.817361-37.73483-0.057167-65.843775-15.256188-17.29959-28.540736-43.041595-41.30227-80.186514-13.108183-6.846614-24.796931-23.665762-28.312069-42.137875-3.720695-19.83195-1.601881-36.503923 5.377311-46.472808-16.220722-95.313773-5.730041-166.116448 31.277435-210.477739 28.859409-34.632021 73.035822-52.183387 131.314143-52.183387l5.207027-0.075411c48.510128 0 59.666132 10.172008 70.156814 24.478257 2.038537 2.789001 3.663528 5.012417 6.133856 7.031493 26.825737 0.037706 49.089092 10.799625 64.412177 31.105935 29.091725 38.537595 32.608079 112.299555 9.768193 198.686821 8.077521 9.882526 10.310668 27.708779 5.610842 48.951649-4.428588 19.703021-18.344401 37.36872-32.356303 42.72657-10.348373 34.00927-20.896222 59.803575-37.548734 79.175759l0 62.097538c1.829332 13.735799 7.060685 18.805383 16.534531 28.004343l6.310221 6.279813c5.929516 4.737531 11.160869 7.251646 34.6454 17.608533 58.910803 16.268159 107.624055 43.663129 135.214852 76.385542l9.383839 11.128029-10.927337 9.621019C719.321413 908.445597 617.536866 946.873725 512.002433 946.873725L512.002433 946.873725zM256.838646 826.31177c71.99466 58.644431 162.006533 90.800043 255.163786 90.800043s183.13507-32.156828 255.130946-90.800043c-25.024381-23.538049-64.170131-43.419867-112.214413-56.843075-26.16528-11.350614-34.298752-15.113879-44.766323-23.721712l-6.941486-6.780933c-10.932203-10.60988-22.207405-21.589519-25.437927-47.516402l-0.109468-75.68738 4.14762-4.294794c16.51507-17.1512 26.943719-45.003504 37.558465-81.563378l6.014657-20.659041 12.115673 9.089492c3.611227-3.377695 8.751357-10.22431 10.761919-19.184872 2.442352-11.036805 1.829332-18.913635 0.926829-22.382554l-11.336018-3.601497 2.385186-14.301384c23.04301-80.646279 22.264571-150.788497-2.038537-182.992762-9.758463-12.961009-23.109907-19.242039-40.770742-19.242039l-8.0909 0.294347-3.825298-2.261122c-9.715892-5.764097-14.571405-12.391776-18.116951-17.224179-5.031878-6.88432-9.003133-12.318797-46.148053-12.318797l-5.002687 0.05595c-49.236266 0-85.712214 13.954735-108.673732 41.478635-32.085066 38.522999-39.963112 103.795109-23.428581 194.081868l2.707508 14.871834-9.887391 1.634722c-0.954804 3.709748-1.623775 11.308043 0.347865 21.793859 2.265987 11.972148 10.262015 20.434023 12.908708 21.63209l11.188844-0.480443 0.902503 10.320398c13.137374 39.734445 26.046082 65.090879 40.633299 79.852028l4.095319 4.11478 0.199475 5.820048c0.526663 15.056713 2.066512 65.219808-0.228666 77.834168-2.7367 14.710064-10.262015 28.074889-23.015035 40.818178-12.585169 12.614361-28.045697 20.164002-52.201632 29.69015C321.886954 782.447949 282.124534 802.53654 256.838646 826.31177L256.838646 826.31177zM256.838646 826.31177" fill="#87CEFA" p-id="7282"></path></svg>